<svg xmlns="http://www.w3.org/2000/svg" preserveAspectRatio="none" width="1455" height="479" fill="none" viewBox="0 0 1455 479">
  <path fill="#ffe866" d="M1305.66 473.344V5.844h146.89v52.328h-85.26v149.812h80.75v51.797h-80.75v161.235h87.12v52.328zM1190.07 478.922c-22.66 0-41.08-5.401-55.25-16.203-14.16-10.802-24.52-26.651-31.07-47.547-6.56-20.896-9.83-46.219-9.83-75.969V140.781c0-21.073 1.5-40.109 4.51-57.11 3.01-17.176 8.15-31.963 15.41-44.359 7.44-12.395 17.44-21.87 30.02-28.421 12.75-6.73 28.77-10.094 48.07-10.094 17.89 0 32.76 3.099 44.63 9.297 12.04 6.02 21.51 14.786 28.42 26.297q10.62 17.265 14.88 41.172c3.01 15.937 4.51 33.645 4.51 53.125v57.109h-60.03v-55.25c0-26.563-2.04-46.307-6.11-59.234-4.07-12.928-12.84-19.391-26.3-19.391q-21.51 0-28.95 20.187-7.17 20.188-7.17 58.172v209.047c0 20.011.97 36.302 2.92 48.875 1.95 12.396 5.4 21.516 10.36 27.359 4.96 5.667 12.04 8.5 21.25 8.5q20.46 0 27.09-19.921c4.61-13.459 6.91-35.24 6.91-65.344v-58.172h60.83V340q0 45.953-9.03 77.031c-6.02 20.542-16.03 36.037-30.02 46.485-13.81 10.27-32.49 15.406-56.05 15.406M867.297 473.344V5.844h47.547L1019.23 308.39l-5.31-132.016V5.844h54.99v467.5h-44.63L920.688 165.219l3.453 119.797v188.328zM625.154 473.344l69.062-467.5h77.828l74.641 467.5h-57.906l-12.485-86.86h-80.75l-11.422 86.86zm76.765-136.532h67.203L734.591 94.828h-.797zM540.515 473.344V58.172H487.39V5.844h164.422v52.328h-49.938v415.172zM394.666 478.656q-28.688 0-47.282-9.828-18.327-9.828-28.687-28.156t-14.344-43.828-3.984-57.11v-43.828h59.234v47.282q0 44.358 6.641 63.484 6.906 19.125 28.422 19.125 14.609 0 21.781-6.906 7.171-6.907 9.297-22.047 2.124-15.141 2.125-40.11 0-29.218-11.157-51.265-10.89-22.313-32.14-44.36l-32.406-32.406q-13.548-14.343-26.032-30.547-12.218-16.468-19.922-36.922-7.703-20.453-7.703-46.484 0-35.86 8.235-61.625 8.233-25.765 28.422-39.312Q355.618 0 392.275 0q28.422 0 45.953 9.563 17.531 9.296 26.828 26.828 9.297 17.531 12.75 41.968t3.453 54.719v28.156h-57.906v-32.14q0-25.5-2.391-42.235-2.124-17-8.765-25.5-6.64-8.5-19.922-8.5-12.484 0-20.188 5.844t-11.156 18.063q-3.453 11.952-3.453 31.078 0 17 3.984 28.422 4.251 11.422 12.75 21.781 8.767 10.094 21.25 23.375l34.532 36.922q26.297 27.89 41.968 60.297 15.938 32.406 15.938 73.843 0 40.11-8.234 68.266t-28.422 43.031-56.578 14.875M216.792 473.344V5.844h61.891v467.5zM0 473.344V5.844h95.094q36.125 0 56.844 14.875 20.984 14.875 29.75 42.765 9.03 27.625 9.031 66.407l.265 207.718q0 46.75-9.828 76.766-9.562 30.015-31.078 44.625-21.516 14.344-57.11 14.344zm61.625-48.875h26.031q14.079 0 23.11-5.844 9.297-6.11 13.812-21.781 4.781-15.672 4.781-45.156l-.265-221.797q0-40.641-9.828-58.172-9.562-17.532-32.407-17.531H61.625z"/>
</svg>