<svg xmlns="http://www.w3.org/2000/svg" width="64" height="51" fill="none" viewBox="0 0 64 51">
  <path fill="#ffe866" d="M53.56 50.835q-3.116 0-5.07-1.048a7.3 7.3 0 0 1-2.974-2.974q-1.02-1.954-1.416-4.672-.368-2.72-.368-6.033V20.731q0-2.975.51-5.438.51-2.465 1.643-4.248A7.7 7.7 0 0 1 49 8.298q1.954-.963 4.843-.963 2.945 0 4.814.991a6.66 6.66 0 0 1 2.86 2.776q1.02 1.784 1.416 4.304.397 2.493.397 5.551v8.468H50.303v8.41q0 3.626.51 5.637.537 2.01 2.86 2.01 1.53 0 2.18-.934.68-.964.822-2.662a50 50 0 0 0 .141-3.993v-3.569h6.429v2.011q0 3.342-.34 6.032t-1.331 4.588q-.963 1.87-2.889 2.889-1.925.99-5.126.991M50.273 25.29h6.542v-5.437q0-2.352-.198-3.965-.17-1.643-.793-2.464-.623-.822-2.01-.822-1.587 0-2.351.963t-.992 2.634q-.198 1.671-.198 3.852zM19.247 50.325V0h6.513v12.49q.567-2.04 2.35-3.597 1.785-1.587 4.334-1.586 3.426 0 5.267 2.35 1.84 2.351 1.841 6.967v33.701h-6.514V17.22q0-2.379-.877-3.399-.878-1.02-2.408-1.02-1.161 0-2.067.595T26.27 15.18q-.51 1.16-.51 2.917v32.228zM5.664 50.325V6.061H0V.48h17.53v5.58h-5.324v44.264z"/>
</svg>