<svg xmlns="http://www.w3.org/2000/svg" width="113" height="32" fill="none" viewBox="0 0 113 32"><path fill="#ffe866" d="M101.443 31.627V.39h11.413v3.497h-6.625v10.01h6.274v3.46h-6.274v10.774H113v3.496zM92.462 32q-2.641 0-4.293-1.083-1.65-1.081-2.414-3.177-.764-2.094-.764-5.076V9.407q0-2.112.351-3.816.351-1.722 1.197-2.964.867-1.243 2.332-1.9 1.486-.674 3.735-.674 2.085 0 3.468.621 1.403.604 2.208 1.758.825 1.154 1.155 2.75.351 1.598.351 3.55v3.816h-4.664V8.856q0-2.662-.474-3.957-.475-1.296-2.044-1.296-1.671 0-2.25 1.349Q89.8 6.3 89.8 8.839v13.967q0 2.006.227 3.266.227 1.242.805 1.828.578.568 1.65.568 1.59 0 2.106-1.331.536-1.35.536-4.366v-3.887h4.726v3.834q0 3.07-.701 5.147-.703 2.059-2.332 3.106Q95.207 32 92.462 32M67.384 31.627V.39h3.694l8.11 20.216-.412-8.821V.39h4.272v31.237h-3.467L71.532 11.04l.269 8.005v12.583zM48.57 31.627 53.938.39h6.047l5.799 31.237h-4.5l-.97-5.803H54.04l-.887 5.803zm5.965-9.122h5.222L57.074 6.336h-.062zM41.995 31.627V3.887h-4.127V.39h12.774v3.497h-3.88v27.74zM30.664 31.982q-2.228 0-3.674-.656-1.424-.657-2.229-1.882t-1.114-2.928-.31-3.816v-2.928h4.602v3.159q0 2.964.516 4.241.537 1.278 2.209 1.278 1.134 0 1.692-.461.557-.462.722-1.473t.165-2.68q0-1.952-.867-3.426-.846-1.491-2.497-2.963l-2.518-2.166a28 28 0 0 1-2.022-2.04 9.7 9.7 0 0 1-1.548-2.468q-.598-1.366-.598-3.106 0-2.396.64-4.117.639-1.722 2.208-2.627Q27.63 0 30.478 0q2.208 0 3.57.639 1.362.621 2.084 1.793.723 1.17.991 2.804.268 1.632.268 3.656v1.881h-4.499V8.626q0-1.704-.185-2.822-.165-1.137-.681-1.704-.516-.568-1.548-.568-.97 0-1.569.39t-.866 1.207q-.27.8-.269 2.077 0 1.135.31 1.899.33.764.99 1.455.682.675 1.651 1.562l2.683 2.467q2.044 1.863 3.261 4.029 1.239 2.165 1.238 4.934 0 2.68-.64 4.561-.639 1.882-2.208 2.875-1.568.994-4.395.994M16.843 31.627V.39h4.809v31.237zM0 31.627V.39h7.388q2.807 0 4.417.994 1.63.994 2.311 2.858.702 1.846.702 4.437l.02 13.879q0 3.123-.763 5.13-.742 2.004-2.415 2.98-1.671.96-4.437.96zm4.788-3.265H6.81q1.094 0 1.796-.39.723-.41 1.073-1.456.371-1.047.371-3.017l-.02-14.82q0-2.715-.764-3.887-.742-1.17-2.518-1.171h-1.96z"/></svg>